<?xml version="1.0" encoding="UTF-8" standalone="no"?>
<!-- Created with Inkscape (http://www.inkscape.org/) -->

<svg
   version="1.1"
   id="svg2"
   xml:space="preserve"
   width="377.95334"
   height="377.95334"
   viewBox="0 0 377.95334 377.95334"
   sodipodi:docname="CAD_designer.svg"
   inkscape:version="1.1.1 (3bf5ae0d25, 2021-09-20)"
   xmlns:inkscape="http://www.inkscape.org/namespaces/inkscape"
   xmlns:sodipodi="http://sodipodi.sourceforge.net/DTD/sodipodi-0.dtd"
   xmlns="http://www.w3.org/2000/svg"
   xmlns:svg="http://www.w3.org/2000/svg"><defs
     id="defs6"><clipPath
       clipPathUnits="userSpaceOnUse"
       id="clipPath16"><path
         d="M 0,0 H 283.465 V 283.465 H 0 Z"
         clip-rule="evenodd"
         id="path14" /></clipPath><clipPath
       clipPathUnits="userSpaceOnUse"
       id="clipPath28"><path
         d="M 0,0 H 284 V 284 H 0 Z"
         id="path26" /></clipPath><clipPath
       clipPathUnits="userSpaceOnUse"
       id="clipPath44"><path
         d="M 0,0 H 284 V 284 H 0 Z"
         id="path42" /></clipPath></defs><sodipodi:namedview
     id="namedview4"
     pagecolor="#ffffff"
     bordercolor="#666666"
     borderopacity="1.0"
     inkscape:pageshadow="2"
     inkscape:pageopacity="0.0"
     inkscape:pagecheckerboard="0"
     showgrid="false"
     inkscape:zoom="4.6196179"
     inkscape:cx="180.64265"
     inkscape:cy="200.23301"
     inkscape:window-width="3840"
     inkscape:window-height="2080"
     inkscape:window-x="1609"
     inkscape:window-y="-11"
     inkscape:window-maximized="1"
     inkscape:current-layer="g8" /><g
     id="g8"
     inkscape:groupmode="layer"
     inkscape:label="untitled"
     transform="matrix(1.3333333,0,0,-1.3333333,0,377.95333)"><path
       d="m 188.079,218.962 h 48.508 v -57.636 h -61.451 l -35.61,61.987 c -0.54,0.941 -1.559,1.502 -2.642,1.456 -1.084,-0.047 -2.051,-0.692 -2.509,-1.675 L 105.567,161.326 H 46.8773 v 57.636 h 34.4818 c 1.6031,0 2.9047,1.301 2.9047,2.905 0,1.603 -1.3016,2.904 -2.9047,2.904 H 43.9726 c -1.6042,0 -2.9046,-1.3 -2.9046,-2.904 0,0 0,-63.446 0,-63.446 0,-1.604 1.3004,-2.904 2.9046,-2.904 0,0 63.4454,0 63.4454,0 1.129,0 2.155,0.654 2.632,1.677 l 27.225,58.375 33.661,-58.595 c 0.518,-0.901 1.479,-1.457 2.519,-1.457 0,0 66.037,0 66.037,0 1.604,0 2.905,1.3 2.905,2.904 0,0 0,63.446 0,63.446 0,1.604 -1.301,2.904 -2.905,2.904 0,0 -54.317,0 -54.317,0 -1.604,0 -2.905,-1.3 -2.905,-2.904 0,0 0,-23.132 0,-23.132 0,-1.603 1.302,-2.905 2.905,-2.905 1.603,0 2.904,1.302 2.904,2.905 z m -0.5,0.5 h 49.508 v -58.636 h -62.24 l -35.755,62.238 c -0.447,0.779 -1.29,1.243 -2.187,1.205 -0.897,-0.038 -1.698,-0.573 -2.077,-1.386 L 105.886,160.826 H 46.3773 v 58.636 h 34.9818 c 1.3272,0 2.4047,1.077 2.4047,2.405 0,1.327 -1.0775,2.404 -2.4047,2.404 H 43.9726 c -1.328,0 -2.4046,-1.076 -2.4046,-2.404 0,0 0,-63.446 0,-63.446 0,-1.328 1.0766,-2.404 2.4046,-2.404 0,0 63.4454,0 63.4454,0 0.934,0 1.784,0.541 2.179,1.388 l 27.632,59.248 34.141,-59.429 c 0.429,-0.747 1.224,-1.207 2.085,-1.207 0,0 66.037,0 66.037,0 1.328,0 2.405,1.076 2.405,2.404 0,0 0,63.446 0,63.446 0,1.328 -1.077,2.404 -2.405,2.404 0,0 -54.317,0 -54.317,0 -1.328,0 -2.405,-1.076 -2.405,-2.404 0,0 0,-23.132 0,-23.132 0,-1.327 1.078,-2.405 2.405,-2.405 1.327,0 2.404,1.078 2.404,2.405 z"
       style="fill:#7bd4e1;fill-opacity:1;fill-rule:evenodd;stroke:none"
       id="path20" /><g
       id="g22"><g
         id="g24" /><g
         id="g34"><g
           clip-path="url(#clipPath28)"
           id="g32"><path
             d="M 81.3591,222.771 H 43.9726 c -0.4996,0 -0.9046,-0.405 -0.9046,-0.904 v -63.446 c 0,-0.499 0.405,-0.904 0.9046,-0.904 h 63.4454 c 0.351,0 0.671,0.203 0.82,0.522 l 28.853,61.866 c 0,0 35.579,-61.934 35.579,-61.934 0.162,-0.281 0.461,-0.454 0.785,-0.454 h 66.037 c 0.5,0 0.905,0.405 0.905,0.904 v 63.446 c 0,0.499 -0.405,0.904 -0.905,0.904 h -54.317 c -0.5,0 -0.905,-0.405 -0.905,-0.904 v -23.132 c 0,-0.499 0.405,-0.905 0.905,-0.905 0.499,0 0.904,0.406 0.904,0.905 0,0 0,15.305 0,22.227 0,0 52.508,0 52.508,0 0,0 0,-61.636 0,-61.636 0,0 -64.609,0 -64.609,0 0,0 -36.186,62.991 -36.186,62.991 -0.169,0.293 -0.486,0.468 -0.823,0.453 -0.338,-0.014 -0.639,-0.215 -0.782,-0.521 l -29.345,-62.923 c 0,0 -61.9647,0 -61.9647,0 0,0 0,53.958 0,61.636 0,0 36.4818,0 36.4818,0 0.4993,0 0.9047,0.405 0.9047,0.905 0,0.499 -0.4054,0.904 -0.9047,0.904 z"
             style="fill:#7bd4e1;fill-opacity:1;fill-rule:evenodd;stroke:none"
             id="path30" /></g></g></g><path
       d="m 137.614,106.814 c 0.642,1.12 0.256,2.55 -0.864,3.193 -1.119,0.643 -2.55,0.256 -3.192,-0.863 0,0 -2.951,-5.138 -2.951,-5.138 -0.643,-1.119 -0.256,-2.55 0.864,-3.192 1.119,-0.643 2.549,-0.256 3.192,0.863 0,0 2.951,5.137 2.951,5.137 z m -0.434,0.249 c 0.505,0.88 0.201,2.005 -0.679,2.51 -0.88,0.506 -2.004,0.202 -2.51,-0.678 0,0 -2.95,-5.138 -2.95,-5.138 -0.506,-0.88 -0.201,-2.005 0.679,-2.51 0.88,-0.505 2.004,-0.201 2.51,0.679 0,0 2.95,5.137 2.95,5.137 z m 3.565,14.51 -9.453,19.298 c -0.568,1.159 -1.97,1.639 -3.129,1.072 -1.159,-0.568 -1.639,-1.97 -1.071,-3.129 0,0 11.366,-23.204 11.366,-23.204 0.043,-0.088 0.093,-0.173 0.148,-0.253 0.542,-0.788 1.294,-1.05 1.954,-1.043 0.719,0.007 1.478,0.331 1.967,1.159 0,0 13.692,23.204 13.692,23.204 -0.02,-0.032 0.334,0.562 0.364,1.198 0.035,0.749 -0.216,1.519 -1.069,2.054 -1.914,1.199 -3.279,-0.801 -3.279,-0.801 -0.007,-0.011 -0.013,-0.022 -0.02,-0.033 z m -0.039,-1.055 -9.863,20.133 c -0.446,0.912 -1.549,1.289 -2.46,0.843 -0.911,-0.447 -1.289,-1.549 -0.842,-2.46 0,0 11.366,-23.204 11.366,-23.204 0.033,-0.066 0.07,-0.13 0.111,-0.19 0.427,-0.621 1.017,-0.832 1.537,-0.826 0.564,0.006 1.158,0.263 1.541,0.913 0,0 13.692,23.204 13.692,23.204 -0.014,-0.024 0.271,0.455 0.296,0.968 0.027,0.585 -0.169,1.188 -0.836,1.606 -1.511,0.947 -2.587,-0.639 -2.587,-0.639 -0.005,-0.008 -0.01,-0.016 -0.015,-0.024 z m -2.417,17.665 c -1.291,0 -2.339,-1.048 -2.339,-2.339 0,-1.29 1.048,-2.338 2.339,-2.338 0,0 6.898,0 6.898,0 1.291,0 2.339,1.048 2.339,2.338 0,1.291 -1.048,2.339 -2.339,2.339 z m 0,-0.5 c -1.015,0 -1.839,-0.824 -1.839,-1.839 0,-1.014 0.824,-1.838 1.839,-1.838 0,0 6.898,0 6.898,0 1.015,0 1.839,0.824 1.839,1.838 0,1.015 -0.824,1.839 -1.839,1.839 z"
       style="fill:#ef3431;fill-opacity:1;fill-rule:evenodd;stroke:none"
       id="path36" /><g
       id="g38"><g
         id="g40" /><g
         id="g50"><g
           clip-path="url(#clipPath44)"
           id="g48"><path
             d="m 140.586,117.353 13.354,22.729 c 0,0 0.209,0.342 0.512,0.152 0.272,-0.171 0.044,-0.541 0.044,-0.541 L 140.804,116.49 c -0.136,-0.231 -0.386,-0.239 -0.55,0 l -11.366,23.203 c -0.083,0.168 -0.013,0.371 0.155,0.454 0.168,0.082 0.371,0.012 0.453,-0.156 z m -2.297,18.83 h 6.898 c 0.187,0 0.339,-0.152 0.339,-0.339 0,-0.186 -0.152,-0.338 -0.339,-0.338 h -6.898 c -0.187,0 -0.339,0.152 -0.339,0.338 0,0.187 0.152,0.339 0.339,0.339 z m -2.41,-28.373 -2.95,-5.137 c -0.093,-0.162 -0.3,-0.218 -0.462,-0.125 -0.163,0.093 -0.219,0.3 -0.126,0.462 l 2.951,5.138 c 0.093,0.162 0.3,0.218 0.462,0.125 0.162,-0.093 0.218,-0.301 0.125,-0.463 z"
             style="fill:#ef3431;fill-opacity:1;fill-rule:evenodd;stroke:none"
             id="path46" /></g></g></g><path
       d="m 129.701,58.7179 h 24.272 c 1.319,0 2.389,1.0694 2.389,2.3885 0,0 0,7.462 0,7.462 0,0 10.766,0 10.766,0 1.319,0 2.388,1.0694 2.388,2.3885 v 6.1877 c 0,0 12.487,-17.4303 12.487,-17.4303 0.604,-0.843 1.684,-1.1993 2.672,-0.8817 0.987,0.3176 1.657,1.2364 1.657,2.2738 v 9.5004 c 0,0 6.224,0 6.224,0 0,0 0,-9.525 0,-9.525 0,-0.6338 0.252,-1.2417 0.7,-1.6897 0.449,-0.448 1.057,-0.6993 1.691,-0.6987 0,0 26.182,0.0245 26.182,0.0245 1.318,0.0013 2.386,1.0703 2.386,2.3885 v 21.0557 h 14.105 v -6.7783 h -8.761 c -0.952,0 -1.813,-0.5655 -2.192,-1.4392 -0.378,-0.8737 -0.202,-1.8886 0.45,-2.5831 0,0 11.149,-11.8889 11.149,-11.8889 0.902,-0.9616 2.414,-1.0102 3.376,-0.1084 0.962,0.9017 1.01,2.4145 0.108,3.376 l -7.377,7.8666 h 5.635 c 1.319,0 2.389,1.0694 2.389,2.3885 0,0 0,11.5552 0,11.5552 0,1.3191 -1.07,2.3885 -2.389,2.3885 0,0 -18.882,0 -18.882,0 -1.319,0 -2.388,-1.0694 -2.388,-2.3885 V 63.4926 l -21.405,-0.0201 c 0,0 0,7.1343 0,7.1343 0,0 13.411,0 13.411,0 1.319,0 2.388,1.0694 2.388,2.3885 v 11.5552 c 0,1.3191 -1.069,2.3885 -2.388,2.3885 0,0 -15.8,0 -15.8,0 -1.319,0 -2.388,-1.0694 -2.388,-2.3885 0,0 0,-9.1667 0,-9.1667 0,0 -8.612,0 -8.612,0 -1.32,0 -2.389,-1.0694 -2.389,-2.3885 v -4.4611 l -12.487,17.4084 c -0.604,0.843 -1.684,1.1993 -2.672,0.8817 -0.987,-0.3175 -1.657,-1.2363 -1.657,-2.2738 V 73.3453 h -8.377 v 11.2052 c 0,1.3191 -1.07,2.3885 -2.389,2.3885 0,0 -14.296,0 -14.296,0 -1.319,0 -2.388,-1.0694 -2.388,-2.3885 0,0 0,-13.5936 0,-13.5936 0,-1.3191 1.069,-2.3885 2.388,-2.3885 h 11.908 v -5.0735 c 0,0 -19.838,0 -19.838,0 0,0 0,21.0556 0,21.0556 0,1.3183 -1.07,2.3885 -2.388,2.3885 -1.318,0 -2.388,-1.0702 -2.388,-2.3885 0,0 0,-20.0333 0,-20.0333 0,0 -6.31,2.344 -6.31,2.344 0,0 0,5.9673 0,5.9673 0,0.6254 -0.245,1.2258 -0.683,1.6723 0,0 -11.847,12.0803 -11.847,12.0803 -0.525,0.5354 -1.271,0.7931 -2.014,0.696 -0.744,-0.097 -1.399,-0.5377 -1.769,-1.1899 L 91.5211,63.4724 79.3986,63.4912 c 0,0 0,7.138 0,7.138 0,0 13.879,2.9718 13.879,2.9718 1.1015,0.2358 1.8884,1.2091 1.8884,2.3355 0,0 0,8.614 0,8.614 0,1.3191 -1.0693,2.3885 -2.3885,2.3885 0,0 -15.7674,0 -15.7674,0 -1.3191,0 -2.3884,-1.0694 -2.3884,-2.3885 0,0 0,-10.0589 0,-10.0589 0,0 -10.5448,-2.2578 -10.5448,-2.2578 0,0 0,12.3167 0,12.3167 0,1.3191 -1.0694,2.3885 -2.3885,2.3885 0,0 -18.2319,0 -18.2319,0 -1.3192,0 -2.3885,-1.0694 -2.3885,-2.3885 V 61.1064 c 0,-1.3182 1.0702,-2.3885 2.3885,-2.3885 1.3182,0 2.3884,1.0703 2.3884,2.3885 V 82.1621 H 59.3 c 0,0 0,-10.9512 0,-10.9512 0,0 -8.7036,-1.8636 -8.7036,-1.8636 -1.1015,-0.2358 -1.8884,-1.2091 -1.8884,-2.3355 0,0 0,-5.93 0,-5.93 0,-0.6344 0.2524,-1.2428 0.7015,-1.6908 0.4491,-0.4481 1.0581,-0.6991 1.6925,-0.6976 0,0 10.592,0.0246 10.592,0.0246 1.3169,0.003 2.3829,1.0715 2.3829,2.3884 v 6.2422 c 0,0 10.5448,2.2578 10.5448,2.2578 0,0 0,-8.5 0,-8.5 0,-1.3177 1.0671,-2.3864 2.3847,-2.3885 0,0 15.9009,-0.0245 15.9009,-0.0245 0.8612,-0.0014 1.6564,0.461 2.0812,1.21 l 11.9515,21.0702 8.944,-9.1208 c 0,0 0,-3.2168 0,-3.2168 0,0 -8.626,3.2049 -8.626,3.2049 -0.733,0.2724 -1.553,0.1686 -2.195,-0.2779 -0.643,-0.4464 -1.025,-1.1789 -1.025,-1.961 v -8.4956 c 0,-1.3172 1.066,-2.3857 2.383,-2.3885 0,0 11.847,-0.0245 11.847,-0.0245 0.634,-0.0014 1.243,0.2497 1.692,0.6978 0.449,0.448 0.701,1.0563 0.701,1.6906 0,0 0,0.6835 0,0.6835 0,0 7.866,-2.9224 7.866,-2.9224 0.38,-0.1412 0.784,-0.1813 1.174,-0.125 z m 0,0 0.001,2e-4 z m -0.038,0.5 h 24.31 c 1.043,0 1.889,0.8455 1.889,1.8885 0,0 0,7.962 0,7.962 0,0 11.266,0 11.266,0 1.043,0 1.888,0.8455 1.888,1.8885 v 7.7383 c 0,0 13.393,-18.6895 13.393,-18.6895 0.478,-0.6665 1.332,-0.9482 2.113,-0.6971 0.781,0.2511 1.31,0.9776 1.31,1.7978 v 10.0004 c 0,0 7.224,0 7.224,0 0,0 0,-10.025 0,-10.025 0,-0.5011 0.199,-0.9817 0.554,-1.3359 0.354,-0.3543 0.835,-0.553 1.336,-0.5525 0,0 26.182,0.0245 26.182,0.0245 1.042,10e-4 1.887,0.8462 1.887,1.8885 v 21.5557 h 15.105 v -7.7783 h -9.261 c -0.753,0 -1.434,-0.4471 -1.733,-1.1379 -0.299,-0.6908 -0.16,-1.4933 0.355,-2.0424 0,0 11.15,-11.8889 11.15,-11.8889 0.713,-0.7603 1.909,-0.7987 2.669,-0.0857 0.76,0.713 0.799,1.909 0.086,2.6693 l -8.167,8.7086 h 6.789 c 1.043,0 1.889,0.8455 1.889,1.8885 0,0 0,11.5552 0,11.5552 0,1.043 -0.846,1.8885 -1.889,1.8885 0,0 -18.882,0 -18.882,0 -1.043,0 -1.888,-0.8455 -1.888,-1.8885 V 62.9931 l -22.405,-0.021 c 0,0 0,8.1347 0,8.1347 0,0 13.911,0 13.911,0 1.043,0 1.888,0.8455 1.888,1.8885 v 11.5552 c 0,1.043 -0.845,1.8885 -1.888,1.8885 0,0 -15.8,0 -15.8,0 -1.043,0 -1.888,-0.8455 -1.888,-1.8885 0,0 0,-9.6667 0,-9.6667 0,0 -9.112,0 -9.112,0 -1.043,0 -1.889,-0.8455 -1.889,-1.8885 v -6.016 l -13.393,18.6719 c -0.478,0.6665 -1.332,0.9482 -2.112,0.6971 -0.781,-0.2511 -1.311,-0.9775 -1.311,-1.7978 V 72.8453 h -9.377 v 11.7052 c 0,1.043 -0.846,1.8885 -1.889,1.8885 0,0 -14.296,0 -14.296,0 -1.043,0 -1.888,-0.8455 -1.888,-1.8885 0,0 0,-13.5936 0,-13.5936 0,-1.043 0.845,-1.8885 1.888,-1.8885 h 12.408 v -6.0735 c 0,0 -20.838,0 -20.838,0 0,0 0,21.5556 0,21.5556 0,1.0423 -0.846,1.8885 -1.888,1.8885 -1.042,0 -1.888,-0.8462 -1.888,-1.8885 0,0 0,-20.7525 0,-20.7525 0,0 -7.31,2.7156 -7.31,2.7156 0,0 0,6.3149 0,6.3149 0,0.4944 -0.194,0.9692 -0.54,1.3222 0,0 -11.847,12.0803 -11.847,12.0803 -0.415,0.4233 -1.005,0.6271 -1.592,0.5503 -0.588,-0.0767 -1.106,-0.4251 -1.399,-0.9408 L 91.812,62.972 78.8986,62.992 c 0,0 0,8.0415 0,8.0415 0,0 14.2743,3.0564 14.2743,3.0564 0.8709,0.1865 1.4931,0.956 1.4931,1.8466 0,0 0,8.614 0,8.614 0,1.043 -0.8455,1.8885 -1.8885,1.8885 0,0 -15.7674,0 -15.7674,0 -1.0429,0 -1.8884,-0.8455 -1.8884,-1.8885 0,0 0,-10.4632 0,-10.4632 0,0 -11.5448,-2.4719 -11.5448,-2.4719 0,0 0,12.9351 0,12.9351 0,1.043 -0.8455,1.8885 -1.8885,1.8885 0,0 -18.2319,0 -18.2319,0 -1.043,0 -1.8885,-0.8455 -1.8885,-1.8885 V 61.1064 c 0,-1.0423 0.8462,-1.8885 1.8885,-1.8885 1.0422,0 1.8884,0.8462 1.8884,1.8885 V 82.6621 H 59.8 c 0,0 0,-11.8554 0,-11.8554 0,0 -9.099,-1.9483 -9.099,-1.9483 -0.8708,-0.1865 -1.493,-0.956 -1.493,-1.8466 0,0 0,-5.93 0,-5.93 0,-0.5016 0.1995,-0.9826 0.5546,-1.3369 0.3552,-0.3543 0.8366,-0.5527 1.3382,-0.5515 0,0 10.592,0.0245 10.592,0.0245 1.0413,0.0025 1.8841,0.8472 1.8841,1.8885 v 6.6464 c 0,0 11.5448,2.472 11.5448,2.472 0,0 0,-9.1184 0,-9.1184 0,-1.0418 0.8437,-1.8868 1.8855,-1.8885 0,0 15.9009,-0.0245 15.9009,-0.0245 0.6809,-0.0011 1.3096,0.3645 1.6455,0.9567 l 12.2784,21.6473 9.552,-9.7404 c 0,0 0,-4.1402 0,-4.1402 0,0 -9.3,3.4554 -9.3,3.4554 -0.58,0.2154 -1.228,0.1333 -1.736,-0.2197 -0.508,-0.353 -0.81,-0.9322 -0.81,-1.5505 v -8.4956 c 0,-1.0414 0.843,-1.8863 1.884,-1.8885 0,0 11.847,-0.0245 11.847,-0.0245 0.501,-0.0011 0.983,0.1974 1.338,0.5517 0.355,0.3543 0.554,0.8352 0.554,1.3367 0,0 0,1.4026 0,1.4026 0,0 8.54,-3.1728 8.54,-3.1728 0.312,-0.1157 0.643,-0.1456 0.962,-0.0937 z m -0.168,1.5 h 24.478 c 0.215,0 0.389,0.174 0.389,0.3885 v 9.462 h 12.766 c 0.214,0 0.388,0.1739 0.388,0.3885 v 12.3856 c 0,0 16.112,-22.4625 16.112,-22.4625 0.098,-0.1371 0.274,-0.1951 0.434,-0.1434 0.161,0.0516 0.27,0.2011 0.27,0.3698 v 11.5004 h 10.224 v -11.525 c 0,-0.1031 0.041,-0.2019 0.114,-0.2748 0.073,-0.0729 0.172,-0.1137 0.275,-0.1136 l 26.182,0.0245 c 0.214,2e-4 0.388,0.1741 0.388,0.3885 v 23.0557 c 0,0 18.105,0 18.105,0 0,0 0,-10.7783 0,-10.7783 0,0 -10.761,0 -10.761,0 -0.155,0 -0.295,-0.092 -0.357,-0.2341 -0.061,-0.1421 -0.032,-0.3072 0.074,-0.4201 l 11.149,-11.8889 c 0.146,-0.1564 0.392,-0.1643 0.549,-0.0177 0.156,0.1467 0.164,0.3927 0.017,0.5491 l -10.535,11.2347 c 0,0 10.252,0 10.252,0 0.215,0 0.389,0.174 0.389,0.3885 v 11.5552 c 0,0.2146 -0.174,0.3885 -0.389,0.3885 h -18.882 c -0.214,0 -0.388,-0.1739 -0.388,-0.3885 v -23.056 c 0,0 -25.405,-0.0238 -25.405,-0.0238 v 11.1361 h 15.411 c 0.215,0 0.388,0.174 0.388,0.3885 v 11.5552 c 0,0.2146 -0.173,0.3885 -0.388,0.3885 h -15.8 c -0.214,0 -0.388,-0.1739 -0.388,-0.3885 V 73.3838 h -10.612 c -0.215,0 -0.389,-0.174 -0.389,-0.3885 V 62.3145 c 0,0 -16.112,22.4624 -16.112,22.4624 -0.098,0.1372 -0.274,0.1951 -0.434,0.1434 -0.161,-0.0516 -0.27,-0.201 -0.27,-0.3698 V 71.3453 c 0,0 -12.377,0 -12.377,0 0,0 0,13.2052 0,13.2052 0,0.2146 -0.174,0.3885 -0.389,0.3885 h -14.296 c -0.215,0 -0.388,-0.1739 -0.388,-0.3885 V 70.9569 c 0,-0.2146 0.173,-0.3885 0.388,-0.3885 h 13.908 c 0,0 0,-9.0735 0,-9.0735 h -23.838 v 23.0556 c 0,0.2144 -0.174,0.3885 -0.388,0.3885 -0.214,0 -0.388,-0.1741 -0.388,-0.3885 V 61.6406 l -10.31,3.8301 v 7.3578 c 0,0.1017 -0.04,0.1993 -0.111,0.272 l -11.847,12.0803 c -0.085,0.087 -0.206,0.129 -0.327,0.1132 -0.121,-0.0158 -0.228,-0.0875 -0.288,-0.1936 L 92.6849,61.4706 c 1e-4,0 -15.2863,0.0237 -15.2863,0.0237 v 10.752 l 15.4603,3.3104 c 0.1791,0.0383 0.3071,0.1966 0.3071,0.3798 v 8.614 c 0,0.2146 -0.1739,0.3885 -0.3885,0.3885 H 77.0101 c -0.2145,0 -0.3884,-0.1739 -0.3884,-0.3885 V 72.8745 L 62.0769,69.7602 v 14.7903 c 0,0.2146 -0.1739,0.3885 -0.3885,0.3885 H 43.4565 c -0.2146,0 -0.3885,-0.1739 -0.3885,-0.3885 V 61.1064 c 0,-0.2144 0.1741,-0.3885 0.3885,-0.3885 0.2144,0 0.3884,0.1741 0.3884,0.3885 v 23.0557 c 0,0 17.4551,0 17.4551,0 V 69.5938 L 51.0151,67.3917 C 50.836,67.3533 50.708,67.195 50.708,67.0118 v -5.93 c 0,-0.1032 0.041,-0.2021 0.1141,-0.275 0.073,-0.0729 0.1721,-0.1137 0.2752,-0.1134 l 10.592,0.0245 c 0.2142,5e-4 0.3876,0.1743 0.3876,0.3885 v 7.8592 L 76.6217,72.08 V 61.1064 c 0,-0.2143 0.1735,-0.3881 0.3878,-0.3885 l 15.9009,-0.0245 c 0.1401,-3e-4 0.2694,0.0749 0.3385,0.1968 0,0 11.4031,20.1039 13.2611,23.3785 0,0 11.374,-11.5989 11.374,-11.5989 v -6.9104 l -11.323,4.2067 c -0.119,0.0443 -0.252,0.0274 -0.357,-0.0452 -0.104,-0.0726 -0.166,-0.1917 -0.166,-0.3189 v -8.4956 c 0,-0.2142 0.173,-0.388 0.387,-0.3885 l 11.847,-0.0245 c 0.103,-3e-4 0.202,0.0406 0.275,0.1135 0.073,0.0728 0.114,0.1718 0.114,0.2749 v 3.5601 l 10.563,-3.9242 c 0.088,-0.0329 0.184,-0.0321 0.271,2e-4 z m -11.611,4.2126 -11.07,4.1127 c 0,0 0,-7.5491 0,-7.5491 0,0 11.07,-0.023 11.07,-0.023 z M 61.3,68.7993 51.4849,66.6977 c 0,0 0,-5.2265 0,-5.2265 0,0 9.8151,0.0228 9.8151,0.0228 z m 55.084,-4.9116 v -0.9223 c 0,0 -8.076,0.0242 -8.076,0.0242 0,0 0.004,3.8971 0.004,3.8971 z M 59.8,62.9905 52.9849,62.9747 v 2.5102 L 59.8,66.9441 Z m 56.084,0.5495 v -0.0758 c 0,0 -7.078,0.0233 -7.078,0.0233 0,0 0.004,2.6808 0.004,2.6808 z M 59.3,63.4893 53.4849,63.4758 v 1.6048 L 59.3,66.3257 Z m 94.285,7.856 v 12.8168 c 0,0 -13.519,0 -13.519,0 0,0 0,-12.8168 0,-12.8168 z m -12.019,11.3168 h 10.519 v -9.8168 h -10.519 z m -64.1674,-9.6212 14.9905,3.2097 c 0,0 0,7.9115 0,7.9115 0,0 -14.9905,0 -14.9905,0 z m 64.6674,9.1212 h 9.519 v -8.8168 h -9.519 z m 53.267,-8.7783 h 15.0227 V 84.1621 H 195.333 Z m 1.5,9.2783 h 12.037 c 0,0 -0.012,-7.7783 -0.012,-7.7783 h -12.025 z m -117.9344,0 H 90.8891 V 77.4634 L 78.8986,74.896 Z m 118.4344,-0.5 h 11.041 c 0,0 -0.014,-6.7783 -0.014,-6.7783 h -11.027 z m -117.9344,0 H 90.3891 V 77.8677 L 79.3986,75.5144 Z m 27.1094,0.6388 -0.008,-0.0152 0.01,-0.017 z"
       style="fill:#a3da68;fill-opacity:1;fill-rule:evenodd;stroke:none"
       id="path52" /></g></svg>
