<?xml version="1.0" encoding="UTF-8" standalone="no"?>
<!-- Created with Inkscape (http://www.inkscape.org/) -->

<svg
   width="250mm"
   height="250mm"
   viewBox="0 0 250 250"
   version="1.1"
   id="svg5"
   inkscape:version="1.1.1 (3bf5ae0d25, 2021-09-20)"
   sodipodi:docname="Carla_vector.svg"
   xmlns:inkscape="http://www.inkscape.org/namespaces/inkscape"
   xmlns:sodipodi="http://sodipodi.sourceforge.net/DTD/sodipodi-0.dtd"
   xmlns="http://www.w3.org/2000/svg"
   xmlns:svg="http://www.w3.org/2000/svg">
  <sodipodi:namedview
     id="namedview7"
     pagecolor="#ffffff"
     bordercolor="#666666"
     borderopacity="1.0"
     inkscape:pageshadow="2"
     inkscape:pageopacity="0.0"
     inkscape:pagecheckerboard="0"
     inkscape:document-units="mm"
     showgrid="false"
     inkscape:snap-page="true"
     width="300mm"
     inkscape:snap-object-midpoints="true"
     inkscape:snap-center="true"
     inkscape:snap-grids="false"
     inkscape:snap-to-guides="false"
     inkscape:zoom="0.38885732"
     inkscape:cx="214.73172"
     inkscape:cy="-282.8801"
     inkscape:window-width="3840"
     inkscape:window-height="2068"
     inkscape:window-x="1878"
     inkscape:window-y="-12"
     inkscape:window-maximized="1"
     inkscape:current-layer="layer1" />
  <defs
     id="defs2">
    <rect
       x="-821.63812"
       y="288.02338"
       width="717.48681"
       height="461.6089"
       id="rect1851" />
  </defs>
  <g
     inkscape:label="Layer 1"
     inkscape:groupmode="layer"
     id="layer1">
    <text
       xml:space="preserve"
       transform="scale(0.26458333)"
       id="text1849"
       style="fill:black;fill-opacity:1;line-height:1.25;stroke:none;font-family:sans-serif;font-style:normal;font-weight:normal;font-size:40px;white-space:pre;shape-inside:url(#rect1851)" />
    <path
       id="path23596"
       style="font-size:263.465px;line-height:1.25;font-family:Kathen;-inkscape-font-specification:'Kathen, Normal';stroke-width:24.8944"
       d="M 460.44727 -386.29883 C 417.66012 -386.29883 389.13541 -370.09222 374.87305 -337.67773 C 358.6658 -301.3735 344.07908 -234.59895 331.11328 -137.35547 C 323.60448 -80.470642 318.62763 -30.609391 316.07031 12.539062 C 313.88455 15.241503 311.62646 17.948728 309.23438 20.664062 C 297.56516 34.278151 283.46499 45.947529 266.93359 55.671875 C 250.72635 65.396224 236.30181 70.257812 223.66016 70.257812 C 231.43963 60.209319 239.8673 33.30644 248.94336 -10.453125 C 255.10211 -39.302024 258.18164 -65.720307 258.18164 -89.707031 C 258.18164 -132.81831 247.80973 -164.74691 227.06445 -185.49219 C 214.4228 -197.80969 196.10782 -203.96875 172.12109 -203.96875 C 144.89292 -203.96875 118.31245 -193.4327 92.380859 -172.36328 C 66.773411 -151.29386 43.921205 -122.44478 23.824219 -85.816406 C 23.824219 -109.80313 22.528706 -129.57776 19.935547 -145.13672 C 16.694098 -163.61298 9.2375768 -178.35993 -2.4316406 -189.38086 C -16.369872 -202.99495 -36.304733 -209.80273 -62.236328 -209.80273 C -95.623253 -209.80273 -120.09534 -200.0776 -135.6543 -180.62891 C -162.33479 -147.27829 -180.94713 -76.448529 -191.54102 31.626953 C -206.83248 64.10097 -228.32274 102.35335 -256.23633 146.59375 C -290.27154 200.72595 -322.20015 240.59567 -352.02148 266.20312 C -327.71062 184.84275 -315.55469 98.135283 -315.55469 6.078125 C -315.55469 -73.985672 -323.65799 -128.27993 -339.86523 -156.80469 C -349.91373 -173.66022 -371.14605 -182.08789 -403.56055 -182.08789 C -428.19556 -182.08789 -446.83297 -177.06412 -459.47461 -167.01562 C -471.79211 -156.96713 -481.19286 -143.84006 -487.67578 -127.63281 C -493.51039 -137.35716 -501.77589 -146.59379 -512.47266 -155.3457 C -522.84529 -164.42176 -535.64994 -171.87828 -550.88477 -177.71289 C -565.79543 -183.5475 -583.2995 -186.46484 -603.39648 -186.46484 C -672.76349 -186.46484 -728.35327 -155.83175 -770.16797 -94.568359 C -797.94574 -53.505571 -817.3426 -5.1423625 -828.38086 50.5 C -842.19267 78.604047 -859.36243 109.29886 -880.05273 142.70508 C -933.2125 228.27934 -983.2939 271.06641 -1030.2949 271.06641 C -1098.3653 271.06641 -1132.4004 221.47155 -1132.4004 122.2832 C -1132.4004 59.399086 -1121.3797 5.9157405 -1099.3379 -38.167969 C -1077.296 -82.25168 -1050.8777 -104.29297 -1020.084 -104.29297 C -1004.2009 -104.29297 -991.72059 -100.72885 -982.64453 -93.597656 C -973.56847 -86.466469 -966.60047 -77.390069 -961.73828 -66.369141 C -956.55196 -55.348215 -952.17496 -43.841019 -948.60938 -31.847656 C -944.07135 -15.964555 -935.64368 -8.0234375 -923.32617 -8.0234375 C -914.8984 -8.0234375 -907.60603 -13.858126 -901.44727 -25.527344 C -893.0195 -41.086301 -888.80469 -58.103817 -888.80469 -76.580078 C -888.80469 -105.10483 -898.52982 -131.35898 -917.97852 -155.3457 C -945.53084 -188.73263 -989.45319 -205.42773 -1049.7441 -205.42773 C -1133.6977 -205.42773 -1203.3876 -175.92992 -1258.8164 -116.93555 C -1313.921 -58.265316 -1341.4746 22.609412 -1341.4746 125.6875 C -1341.4746 195.37866 -1319.7557 256.15634 -1276.3203 308.01953 C -1232.5607 359.55858 -1169.5144 385.32812 -1087.1816 385.32812 C -991.99374 385.32812 -908.91693 317.41968 -837.94141 181.64648 C -835.33794 225.638 -826.0548 263.40207 -810.03906 294.89062 C -785.40405 342.53993 -742.93939 366.36523 -682.64844 366.36523 C -612.63312 366.36523 -559.63632 324.54931 -523.65625 240.91992 C -519.76651 268.47224 -513.28309 293.27064 -504.20703 315.3125 C -495.13097 337.03021 -482.97506 354.20991 -467.74023 366.85156 C -452.18128 379.81736 -432.89516 386.29883 -409.88086 386.29883 C -367.41788 386.29883 -326.25264 361.66456 -286.38281 312.39453 C -255.4768 274.45051 -226.73897 226.23902 -200.16602 167.78516 C -200.57961 181.52123 -200.80859 194.4546 -200.80859 206.39844 C -200.80859 271.55157 -195.62069 316.28483 -185.24805 340.5957 C -174.87541 364.90657 -152.50975 377.0625 -118.15039 377.0625 C -84.115173 377.0625 -58.18344 365.71749 -40.355469 343.02734 C -25.768947 324.22694 -14.099569 285.004 -5.3476562 225.36133 C 1.7835322 178.36032 12.641994 129.41419 27.228516 78.523438 C 47.001357 9.804713 68.393914 -39.788188 91.408203 -70.257812 C 104.04986 -87.113346 117.50325 -95.541016 131.76562 -95.541016 C 117.1791 -59.560929 109.88477 -21.150853 109.88477 19.691406 C 109.88477 69.609726 120.90541 104.61786 142.94727 124.71484 C 154.29234 135.41162 169.20343 140.75977 187.67969 140.75977 C 214.58372 140.75977 242.45969 131.84555 271.30859 114.01758 C 287.19638 104.19929 301.45222 93.243535 314.0957 81.164062 L 314.0957 106.72461 C 314.0957 184.84354 322.03877 247.72765 337.92188 295.37695 C 358.01886 355.99206 390.75644 386.29883 436.13672 386.29883 C 478.59971 386.29883 519.76689 361.66456 559.63672 312.39453 C 586.83151 278.8106 612.4898 237.04148 636.62109 187.14648 C 639.65333 228.79606 648.82822 264.71961 664.17383 294.89062 C 688.80884 342.53993 731.27155 366.36523 791.5625 366.36523 C 861.57782 366.36523 914.57459 324.54931 950.55469 240.91992 C 954.44443 268.47224 960.92785 293.27064 970.00391 315.3125 C 979.07996 337.03021 991.23591 354.20991 1006.4707 366.85156 C 1022.0297 379.81736 1041.3158 386.29883 1064.3301 386.29883 C 1106.7931 386.29883 1147.9583 361.66456 1187.8281 312.39453 C 1220.5668 272.20056 1250.8755 220.49928 1278.752 157.29102 C 1300.7938 107.04855 1318.46 60.371041 1331.75 17.259766 C 1338.2329 -3.8096547 1341.4746 -19.854073 1341.4746 -30.875 C 1341.4746 -40.275204 1338.2329 -44.974609 1331.75 -44.974609 C 1328.5086 -44.974609 1325.1047 -43.841282 1321.5391 -41.572266 C 1318.2976 -39.627396 1314.245 -34.763852 1309.3828 -26.984375 C 1304.8448 -19.204897 1299.1723 -6.8887393 1292.3652 9.9667969 C 1277.1304 46.595173 1252.334 92.137402 1217.9746 146.59375 C 1183.9394 200.72595 1152.0108 240.59567 1122.1895 266.20312 C 1146.5003 184.84275 1158.6562 98.135283 1158.6562 6.078125 C 1158.6562 -73.985672 1150.5529 -128.27993 1134.3457 -156.80469 C 1124.2972 -173.66022 1103.0649 -182.08789 1070.6504 -182.08789 C 1046.0154 -182.08789 1027.378 -177.06412 1014.7363 -167.01562 C 1002.4188 -156.96713 993.01805 -143.84006 986.53516 -127.63281 C 980.70055 -137.35716 972.43507 -146.59379 961.73828 -155.3457 C 951.36565 -164.42176 938.56099 -171.87828 923.32617 -177.71289 C 908.41551 -183.5475 890.91144 -186.46484 870.81445 -186.46484 C 801.44745 -186.46484 745.85767 -155.83175 704.04297 -94.568359 C 676.61231 -54.018697 657.37447 -6.3335429 646.26758 48.433594 C 631.77709 77.1099 613.02037 109.76193 589.78125 146.59375 C 555.42189 200.72595 523.33109 240.59567 493.50977 266.20312 C 513.28259 200.4017 528.35588 109.15506 538.72852 -7.5371094 C 544.56312 -76.579979 547.48047 -140.59742 547.48047 -199.5918 C 547.48047 -262.80006 543.26761 -308.99102 534.83984 -338.16406 C 525.43965 -370.2544 500.64123 -386.29883 460.44727 -386.29883 z M -559.15039 -87.275391 C -539.05341 -87.275391 -521.8737 -78.038761 -507.61133 -59.5625 C -516.0391 16.611557 -533.70534 89.707352 -560.60938 159.72266 C -587.51339 229.73796 -612.7964 264.74609 -636.45898 264.74609 C -666.28031 264.74609 -681.19141 231.35784 -681.19141 164.58398 C -681.19141 144.81114 -679.56957 123.09422 -676.32812 99.431641 C -669.19694 49.513321 -656.55641 7.050621 -638.4043 -27.957031 C -618.30731 -67.502712 -591.88904 -87.275391 -559.15039 -87.275391 z M 915.06055 -87.275391 C 935.15753 -87.275391 952.33723 -78.038761 966.59961 -59.5625 C 958.17184 16.611557 940.5056 89.707352 913.60156 159.72266 C 886.69755 229.73796 861.41454 264.74609 837.75195 264.74609 C 807.93062 264.74609 793.02148 231.35784 793.02148 164.58398 C 793.02148 144.81114 794.64136 123.09422 797.88281 99.431641 C 805.014 49.513321 817.65648 7.050621 835.80859 -27.957031 C 855.90558 -67.502712 882.3219 -87.275391 915.06055 -87.275391 z "
       transform="scale(0.26458333)" />
  </g>
</svg>
