<?xml version="1.0" encoding="UTF-8" standalone="no"?>
<!-- Created with Inkscape (http://www.inkscape.org/) -->

<svg
   width="250mm"
   height="250mm"
   viewBox="0 0 250 250"
   version="1.1"
   id="svg5"
   inkscape:version="1.1.1 (3bf5ae0d25, 2021-09-20)"
   sodipodi:docname="nome_vector.svg"
   xmlns:inkscape="http://www.inkscape.org/namespaces/inkscape"
   xmlns:sodipodi="http://sodipodi.sourceforge.net/DTD/sodipodi-0.dtd"
   xmlns="http://www.w3.org/2000/svg"
   xmlns:svg="http://www.w3.org/2000/svg">
  <sodipodi:namedview
     id="namedview7"
     pagecolor="#ffffff"
     bordercolor="#666666"
     borderopacity="1.0"
     inkscape:pageshadow="2"
     inkscape:pageopacity="0.0"
     inkscape:pagecheckerboard="0"
     inkscape:document-units="mm"
     showgrid="false"
     inkscape:snap-page="true"
     width="300mm"
     inkscape:snap-object-midpoints="true"
     inkscape:snap-center="true"
     inkscape:snap-grids="false"
     inkscape:snap-to-guides="false"
     inkscape:zoom="0.38885732"
     inkscape:cx="636.48023"
     inkscape:cy="-221.16081"
     inkscape:window-width="3840"
     inkscape:window-height="2068"
     inkscape:window-x="1878"
     inkscape:window-y="-12"
     inkscape:window-maximized="1"
     inkscape:current-layer="layer1" />
  <defs
     id="defs2">
    <rect
       x="-821.63812"
       y="288.02338"
       width="717.48681"
       height="461.6089"
       id="rect1851" />
  </defs>
  <g
     inkscape:label="Layer 1"
     inkscape:groupmode="layer"
     id="layer1">
    <text
       xml:space="preserve"
       transform="scale(0.26458333)"
       id="text1849"
       style="fill:black;fill-opacity:1;line-height:1.25;stroke:none;font-family:sans-serif;font-style:normal;font-weight:normal;font-size:40px;white-space:pre;shape-inside:url(#rect1851)" />
    <path
       id="path12125"
       style="font-size:185.619px;line-height:1.25;font-family:Kathen;-inkscape-font-specification:Kathen;stroke-width:17.5389"
       d="M 53.267578 -283.46484 C 15.358186 -283.46484 -7.9352275 -263.4823 -16.613281 -223.51758 C -20.723938 -229.45519 -26.54778 -235.27708 -34.083984 -240.98633 C -41.39182 -246.69557 -50.641911 -251.49271 -61.832031 -255.375 C -72.793785 -259.25729 -85.695023 -261.19727 -100.53906 -261.19727 C -141.41726 -261.19727 -175.55851 -246.5829 -202.96289 -217.35156 C -227.39846 -191.3174 -245.21222 -157.63182 -256.40234 -116.29688 C -258.04315 -110.21626 -259.33804 -104.59117 -260.32617 -99.367188 C -270.75801 -78.307391 -284.59632 -54.073204 -301.96289 -26.548828 C -325.94173 11.588935 -348.43529 39.679487 -369.44531 57.720703 C -352.31757 0.3998749 -343.75391 -60.689841 -343.75391 -125.54688 C -343.75391 -181.95422 -349.46237 -220.20619 -360.88086 -240.30273 C -367.96033 -252.17797 -382.91887 -258.11523 -405.75586 -258.11523 C -423.11195 -258.11523 -436.24396 -254.57556 -445.15039 -247.49609 C -453.82844 -240.41663 -460.45017 -231.16654 -465.01758 -219.74805 C -469.12824 -226.59914 -474.95208 -233.1094 -482.48828 -239.27539 C -489.7961 -245.66974 -498.81738 -250.92059 -509.55078 -255.03125 C -520.05578 -259.14191 -532.38793 -261.19727 -546.54688 -261.19727 C -595.41801 -261.19727 -634.58324 -239.61698 -664.04297 -196.45508 C -683.61388 -167.52416 -697.27804 -133.44944 -705.05469 -94.246094 C -714.78531 -74.446673 -726.8827 -52.823685 -741.45898 -29.289062 C -778.91163 31.000574 -814.19497 61.146484 -847.30859 61.146484 C -895.26626 61.146484 -919.24609 26.205388 -919.24609 -43.675781 C -919.24609 -87.979529 -911.48032 -125.66045 -895.95117 -156.71875 C -880.42203 -187.77705 -861.81038 -203.30664 -840.11523 -203.30664 C -828.92511 -203.30664 -820.13264 -200.79367 -813.73828 -195.76953 C -807.34393 -190.7454 -802.4353 -184.35247 -799.00977 -176.58789 C -795.35584 -168.82332 -792.27184 -160.71531 -789.75977 -152.26562 C -786.56259 -141.0755 -780.62531 -135.48047 -771.94727 -135.48047 C -766.00965 -135.48047 -760.87027 -139.59119 -756.53125 -147.8125 C -750.59364 -158.77425 -747.625 -170.76417 -747.625 -183.78125 C -747.625 -203.8778 -754.47751 -222.37602 -768.17969 -239.27539 C -787.59114 -262.79748 -818.53494 -274.55859 -861.01172 -274.55859 C -920.15951 -274.55859 -969.25931 -253.7762 -1008.3105 -212.21289 C -1047.1334 -170.87795 -1066.5449 -113.89895 -1066.5449 -41.277344 C -1066.5449 7.8221705 -1051.2441 50.640514 -1020.6426 87.179688 C -989.81264 123.49049 -945.39462 141.64648 -887.38867 141.64648 C -820.32606 141.64648 -761.79534 93.802467 -711.79102 -1.8535156 C -709.95684 29.140029 -703.41643 55.746895 -692.13281 77.931641 C -674.77669 111.50201 -644.85959 128.28711 -602.38281 128.28711 C -553.05491 128.28711 -515.71623 98.827621 -490.36719 39.908203 C -487.62673 59.31964 -483.05842 76.78921 -476.66406 92.318359 C -470.26971 107.61914 -461.70604 119.72248 -450.97266 128.62891 C -440.01092 137.7637 -426.42326 142.33203 -410.20898 142.33203 C -380.29255 142.33203 -351.29066 124.97589 -323.20117 90.263672 C -300.13582 61.945811 -278.78238 25.520399 -259.14258 -19.011719 C -258.98211 -19.377484 -258.83363 -19.734381 -258.67383 -20.099609 C -254.82892 -1.6605752 -248.37428 15.151594 -239.27539 30.316406 C -220.09232 62.516552 -190.74626 78.617188 -151.23828 78.617188 C -103.96572 78.617188 -68.9112 54.86616 -46.074219 7.3652344 C -49.271394 33.856136 -52.240029 55.551806 -54.980469 72.451172 C -85.582026 89.57891 -109.67529 104.07985 -127.25977 115.95508 C -174.53232 147.92686 -198.16797 185.26554 -198.16797 227.9707 C -198.16797 245.55518 -191.88847 258.80061 -179.32812 267.70703 C -164.71246 278.21204 -145.18557 283.46484 -120.75 283.46484 C -61.145473 283.46484 -10.561357 256.40295 31.001953 202.2793 C 67.997866 153.86489 93.117829 93.003983 106.36328 19.697266 C 131.29604 1.0266845 152.32285 -18.177642 169.48242 -37.908203 C 169.20337 -32.032309 169.05078 -26.188945 169.05078 -20.382812 C 169.05078 18.668429 175.7879 51.440738 189.26172 77.931641 C 206.61783 111.50201 236.53493 128.28711 279.01172 128.28711 C 328.33961 128.28711 365.67633 98.827621 391.02539 39.908203 C 393.76583 59.31964 398.33416 76.78921 404.72852 92.318359 C 411.12287 107.61914 419.68654 119.72248 430.41992 128.62891 C 441.38169 137.7637 454.96934 142.33203 471.18359 142.33203 C 501.10004 142.33203 530.10386 124.97589 558.19336 90.263672 C 579.03833 64.671821 598.47819 32.434251 616.52539 -6.4003906 C 620.07933 30.254422 630.18852 60.212163 646.91406 83.412109 C 672.49149 119.26617 712.68537 137.19336 767.49414 137.19336 C 826.87029 137.19336 873.79935 111.95802 908.2832 61.488281 C 923.81235 38.651299 935.46005 13.415953 943.22461 -14.216797 C 968.34529 -15.587016 991.06764 -24.492919 1011.3926 -40.935547 C 1031.9459 -57.378175 1047.9331 -82.955755 1059.3516 -117.66797 C 1064.1473 -131.8269 1066.5449 -143.3592 1066.5449 -152.26562 C 1066.5449 -158.43161 1064.3742 -161.51367 1060.0352 -161.51367 C 1054.3259 -161.51367 1048.9597 -157.28953 1043.9355 -148.83984 C 1040.7384 -143.35897 1036.7411 -134.68187 1031.9453 -122.80664 C 1015.046 -80.329851 988.44166 -57.720908 952.13086 -54.980469 C 954.41455 -75.077016 955.55664 -91.862118 955.55664 -105.33594 C 955.55664 -146.89925 947.67745 -183.32466 931.91992 -214.61133 C 911.13827 -255.48953 881.33653 -275.92773 842.51367 -275.92773 C 830.41006 -275.92773 817.96449 -272.9591 805.17578 -267.02148 C 800.60837 -272.9591 791.47366 -275.92773 777.77148 -275.92773 C 731.4124 -275.92773 693.73148 -255.37415 664.72852 -214.26758 C 641.02373 -181.08091 625.80771 -141.45449 619.07227 -95.394531 C 608.88426 -75.265778 595.72002 -52.364388 579.43164 -26.548828 C 555.45281 11.588935 532.95728 39.679487 511.94727 57.720703 C 529.075 0.3998749 537.64062 -60.689841 537.64062 -125.54688 C 537.64062 -181.95422 531.9302 -220.20619 520.51172 -240.30273 C 513.43224 -252.17797 498.47371 -258.11523 475.63672 -258.11523 C 458.28062 -258.11523 445.15057 -254.57556 436.24414 -247.49609 C 427.56609 -240.41663 420.94241 -231.16654 416.375 -219.74805 C 412.26436 -226.59914 406.4405 -233.1094 398.9043 -239.27539 C 391.59645 -245.66974 382.57713 -250.92059 371.84375 -255.03125 C 361.33874 -259.14191 349.00659 -261.19727 334.84766 -261.19727 C 285.97651 -261.19727 246.81127 -239.61698 217.35156 -196.45508 C 198.59956 -168.73472 185.2913 -136.2722 177.36719 -99.121094 C 162.80846 -75.693276 141.30952 -53.100863 112.87109 -31.34375 C 115.8399 -63.772267 117.32422 -95.629349 117.32422 -126.91602 C 117.32422 -180.12619 114.47096 -219.40681 108.76172 -244.75586 C 106.02128 -256.17435 100.53967 -265.42249 92.318359 -272.50195 C 84.325414 -279.80979 71.308795 -283.46484 53.267578 -283.46484 z M 843.19922 -220.43359 C 848.22337 -220.43359 853.8184 -216.55168 859.98438 -208.78711 C 875.97026 -188.00545 883.96289 -154.09301 883.96289 -107.04883 C 883.96289 -96.772184 883.50526 -86.153157 882.5918 -75.191406 C 866.83427 -86.153157 853.70424 -101.11171 843.19922 -120.06641 C 832.92258 -139.24947 827.7832 -159.91649 827.7832 -182.06836 C 827.7832 -207.64578 832.92258 -220.43359 843.19922 -220.43359 z M -69.025391 -200.56641 C -48.472106 -200.56641 -33.626981 -191.08751 -24.492188 -172.13281 C -25.177297 -164.13987 -27.348036 -152.9498 -31.001953 -138.5625 C -34.427501 -124.40357 -38.99388 -108.98936 -44.703125 -92.318359 C -50.412371 -75.64736 -57.149487 -59.662105 -64.914062 -44.361328 C -72.450267 -29.288918 -80.785129 -16.841387 -89.919922 -7.0214844 C -99.054715 2.7984186 -108.64704 7.7070312 -118.69531 7.7070312 C -141.07556 7.7070313 -152.26562 -12.959981 -152.26562 -54.294922 C -152.26562 -64.114825 -151.23697 -75.762509 -149.18164 -89.236328 C -144.61425 -117.78256 -136.737 -142.10267 -125.54688 -162.19922 C -110.93121 -187.77664 -92.090744 -200.56641 -69.025391 -200.56641 z M -515.37305 -191.31641 C -501.21411 -191.31641 -489.11078 -184.80809 -479.0625 -171.79102 C -485.00014 -118.1241 -497.44571 -66.626713 -516.40039 -17.298828 C -535.3551 32.029055 -553.16885 56.693359 -569.83984 56.693359 C -590.84986 56.693359 -601.35547 33.171138 -601.35547 -13.873047 C -601.35547 -27.803607 -600.21338 -43.104393 -597.92969 -59.775391 C -592.90556 -94.944346 -583.99965 -124.86145 -571.21094 -149.52539 C -557.052 -177.38651 -538.43839 -191.31641 -515.37305 -191.31641 z M 366.01953 -191.31641 C 380.17846 -191.31641 392.2818 -184.80809 402.33008 -171.79102 C 396.39247 -118.1241 383.94689 -66.626713 364.99219 -17.298828 C 346.03749 32.029055 328.22373 56.693359 311.55273 56.693359 C 290.54271 56.693359 280.03906 33.171138 280.03906 -13.873047 C 280.03906 -27.803607 281.18114 -43.104393 283.46484 -59.775391 C 288.48898 -94.944346 297.39488 -124.86145 310.18359 -149.52539 C 324.34252 -177.38651 342.95418 -191.31641 366.01953 -191.31641 z M 773.66016 -151.58008 C 779.14103 -125.08918 790.78677 -100.54026 808.59961 -77.931641 C 826.41247 -55.551397 848.45036 -38.42406 874.71289 -26.548828 C 870.37387 -9.4210903 864.43659 6.1085026 856.90039 20.039062 C 849.59255 33.741252 840.57322 44.817892 829.83984 53.267578 C 819.33482 61.488892 807.1161 65.599609 793.18555 65.599609 C 780.39684 65.599609 770.46227 60.233382 763.38281 49.5 C 756.53171 38.766617 752.19414 26.776701 750.36719 13.53125 C 748.7686 0.28579967 747.96875 -11.246503 747.96875 -21.066406 C 747.96875 -64.685045 756.53242 -108.18981 773.66016 -151.58008 z M -66.96875 131.36914 C -71.307776 148.95362 -76.675957 165.16768 -83.070312 180.01172 C -89.464666 195.08413 -96.99968 207.18943 -105.67773 216.32422 C -114.35579 225.68738 -124.40377 230.36719 -135.82227 230.36719 C -140.8464 230.36719 -143.35938 227.51393 -143.35938 221.80469 C -143.35938 195.31379 -117.89522 165.16788 -66.96875 131.36914 z "
       transform="scale(0.26458333)" />
  </g>
</svg>
