<?xml version="1.0" encoding="UTF-8" standalone="no"?>
<!-- Created with Inkscape (http://www.inkscape.org/) -->

<svg
   width="250mm"
   height="250mm"
   viewBox="0 0 250 250"
   version="1.1"
   id="svg5"
   inkscape:version="1.1.1 (3bf5ae0d25, 2021-09-20)"
   sodipodi:docname="ricardo_vector.svg"
   xmlns:inkscape="http://www.inkscape.org/namespaces/inkscape"
   xmlns:sodipodi="http://sodipodi.sourceforge.net/DTD/sodipodi-0.dtd"
   xmlns="http://www.w3.org/2000/svg"
   xmlns:svg="http://www.w3.org/2000/svg">
  <sodipodi:namedview
     id="namedview7"
     pagecolor="#ffffff"
     bordercolor="#666666"
     borderopacity="1.0"
     inkscape:pageshadow="2"
     inkscape:pageopacity="0.0"
     inkscape:pagecheckerboard="0"
     inkscape:document-units="mm"
     showgrid="false"
     inkscape:snap-page="true"
     width="300mm"
     inkscape:snap-object-midpoints="true"
     inkscape:snap-center="true"
     inkscape:snap-grids="false"
     inkscape:snap-to-guides="false"
     inkscape:zoom="0.38885732"
     inkscape:cx="978.508"
     inkscape:cy="-637.76605"
     inkscape:window-width="3840"
     inkscape:window-height="2068"
     inkscape:window-x="1878"
     inkscape:window-y="-12"
     inkscape:window-maximized="1"
     inkscape:current-layer="layer1" />
  <defs
     id="defs2">
    <rect
       x="-821.63812"
       y="288.02338"
       width="717.48681"
       height="461.6089"
       id="rect1851" />
  </defs>
  <g
     inkscape:label="Layer 1"
     inkscape:groupmode="layer"
     id="layer1">
    <text
       xml:space="preserve"
       transform="scale(0.26458333)"
       id="text1849"
       style="fill:black;fill-opacity:1;line-height:1.25;stroke:none;font-family:sans-serif;font-style:normal;font-weight:normal;font-size:40px;white-space:pre;shape-inside:url(#rect1851)" />
    <path
       id="path20373"
       style="font-size:193.329px;line-height:1.25;font-family:Kathen;-inkscape-font-specification:'Kathen, Normal';stroke-width:18.2673"
       d="M 1319.0723 44.402344 C 1301.7088 44.402344 1288.2701 47.732622 1278.7559 54.392578 C 1269.4795 61.052532 1262.4641 69.614433 1257.707 80.080078 C 1252.2363 92.210711 1247.7163 105.41226 1244.1484 119.68359 C 1238.9156 140.13917 1233.0881 174.27111 1226.666 222.08008 C 1207.3997 201.38665 1182.0688 191.03906 1150.6719 191.03906 C 1108.0957 191.03906 1072.2977 208.87831 1043.2793 244.55664 C 1025.896 266.00148 1011.5143 292.05994 1000.123 322.71484 C 995.88587 329.4314 990.78242 336.20164 984.76758 343.0293 C 976.20478 353.01923 965.85718 361.58308 953.72656 368.71875 C 941.83378 375.8544 931.24903 379.42188 921.97266 379.42188 C 927.6812 372.04836 933.86543 352.30581 940.52539 320.19531 C 945.04465 299.02617 947.30469 279.64037 947.30469 262.03906 C 947.30469 230.40427 939.69346 206.97666 924.4707 191.75391 C 915.19433 182.7154 901.75561 178.19531 884.1543 178.19531 C 864.17443 178.19531 844.67104 185.92611 825.64258 201.38672 C 806.852 216.84733 790.08297 238.01685 775.33594 264.89453 C 775.33594 247.29322 774.38333 232.78425 772.48047 221.36719 C 770.10191 207.80942 764.63116 196.98553 756.06836 188.89844 C 745.84058 178.9085 731.21398 173.91406 712.18555 173.91406 C 687.68642 173.91406 669.72762 181.05093 658.31055 195.32227 C 638.73294 219.79428 625.07654 271.76771 617.30273 351.07031 C 606.08184 374.90039 590.31206 402.97236 569.82812 435.4375 C 544.85328 475.15938 521.42372 504.4145 499.54102 523.20508 C 517.38018 463.50333 526.30078 399.87715 526.30078 332.32617 C 526.30078 273.57585 520.35372 233.73598 508.46094 212.80469 C 501.08741 200.4362 485.50821 194.25195 461.72266 194.25195 C 443.64563 194.25195 429.96971 197.93702 420.69336 205.31055 C 411.65485 212.68407 404.75711 222.31816 400 234.21094 C 395.7186 227.07527 389.65198 220.2971 381.80273 213.875 C 374.19136 207.21504 364.7964 201.74429 353.61719 197.46289 C 342.67583 193.18149 329.83103 191.03906 315.08398 191.03906 C 264.18289 191.03906 223.39235 213.51796 192.70898 258.47266 C 172.32483 288.60576 158.08983 324.09518 149.99023 364.92773 C 139.85561 385.549 127.25545 408.07068 112.07422 432.58203 C 73.065906 495.37591 36.31718 526.77344 1.828125 526.77344 C -48.12154 526.77344 -73.095703 490.38145 -73.095703 417.59766 C -73.095703 371.45368 -65.00816 332.20773 -48.833984 299.85938 C -32.659806 267.51102 -13.274012 251.33594 9.3222656 251.33594 C 20.977188 251.33594 30.133013 253.95273 36.792969 259.18555 C 43.452925 264.41837 48.566932 271.07893 52.134766 279.16602 C 55.940453 287.25311 59.153121 295.69544 61.769531 304.49609 C 65.099509 316.15102 71.283755 321.97852 80.322266 321.97852 C 86.50651 321.97852 91.857696 317.69756 96.376953 309.13477 C 102.5612 297.7177 105.65234 285.23159 105.65234 271.67383 C 105.65234 250.74254 98.517426 231.47631 84.246094 213.875 C 64.02837 189.37588 31.799726 177.125 -12.441406 177.125 C -74.045996 177.125 -125.18607 198.77084 -165.85938 242.06055 C -195.61958 273.74642 -214.41263 314.27006 -222.26953 363.60742 C -232.88903 384.60174 -246.61896 408.4969 -263.61719 435.4375 C -288.59202 475.15938 -312.02159 504.4145 -333.9043 523.20508 C -311.54587 452.56198 -300.36719 383.82178 -300.36719 316.98438 C -300.36719 266.08329 -305.95556 231.23785 -317.13477 212.44727 C -324.50829 200.31663 -339.85031 194.25195 -363.16016 194.25195 C -387.89714 194.25195 -404.90332 200.55381 -414.17969 213.16016 C -428.84343 233.53706 -440.67895 270.19888 -449.70117 323.05273 C -453.89656 329.6584 -458.92985 336.31622 -464.84375 343.0293 C -473.40655 353.01923 -483.75217 361.58308 -495.88281 368.71875 C -507.7756 375.8544 -518.36037 379.42188 -527.63672 379.42188 C -521.9282 372.04836 -515.74394 352.30581 -509.08398 320.19531 C -504.56473 299.02617 -502.30664 279.64037 -502.30664 262.03906 C -502.30664 230.40427 -509.91787 206.97666 -525.14062 191.75391 C -534.417 182.7154 -547.85572 178.19531 -565.45703 178.19531 C -585.4369 178.19531 -604.94032 185.92611 -623.96875 201.38672 C -642.75935 216.84733 -659.52835 238.01685 -674.27539 264.89453 C -674.27539 247.29322 -675.22607 232.78425 -677.12891 221.36719 C -679.50746 207.80942 -684.97822 196.98553 -693.54102 188.89844 C -703.76882 178.9085 -718.39735 173.91406 -737.42578 173.91406 C -761.92491 173.91406 -779.88371 181.05093 -791.30078 195.32227 C -813.18349 222.67565 -827.69245 284.27898 -834.82812 380.13477 C -837.68237 419.38093 -839.10937 452.44263 -839.10938 479.32031 C -839.10938 527.1293 -835.30277 559.9538 -827.69141 577.79297 C -820.08002 595.63214 -803.66971 604.55273 -778.45703 604.55273 C -753.48219 604.55273 -734.45315 596.22607 -721.37109 579.57617 C -710.6676 565.78054 -702.10374 537.00175 -695.68164 493.23633 C -690.44881 458.74728 -682.48084 422.82965 -671.77734 385.48633 C -657.26814 335.06094 -641.56938 298.66897 -624.68164 276.31055 C -615.40527 263.94206 -605.53595 257.75781 -595.07031 257.75781 C -605.77381 284.15978 -611.125 312.3466 -611.125 342.31641 C -611.125 378.94616 -603.03747 404.63382 -586.86328 419.38086 C -578.53834 427.23011 -567.59683 431.1543 -554.03906 431.1543 C -534.29705 431.1543 -513.84101 424.6133 -492.67188 411.53125 C -479.63796 403.47659 -468.09936 394.3805 -458.04102 384.25195 C -460.18899 405.59368 -461.27539 425.87657 -461.27539 445.07031 C -461.27539 490.73857 -456.04376 527.60493 -445.57812 555.67188 C -432.02035 592.77734 -408.94754 611.33008 -376.36133 611.33008 C -345.20225 611.33008 -314.99452 593.25364 -285.73828 557.09961 C -263.8018 530.00938 -243.22781 495.66105 -224.00781 454.10742 C -218.39072 491.2605 -203.29592 524.52413 -178.70312 553.88867 C -146.59262 591.70771 -100.32937 610.61719 -39.914062 610.61719 C 29.934649 610.61719 90.896911 560.787 142.97852 461.15625 C 144.8889 493.43706 151.6989 521.14968 163.45117 544.25586 C 181.5282 579.22062 212.68856 596.70312 256.92969 596.70312 C 308.30649 596.70312 347.19569 566.01907 373.59766 504.65234 C 376.45192 524.87007 381.20919 543.06607 387.86914 559.24023 C 394.5291 575.17656 403.44774 587.78222 414.62695 597.05859 C 426.04402 606.5728 440.19622 611.33008 457.08398 611.33008 C 488.24304 611.33008 518.45079 593.25364 547.70703 557.09961 C 570.38584 529.25631 591.47346 493.87789 610.97266 450.98438 C 610.66912 461.06465 610.50195 470.55536 610.50195 479.32031 C 610.50195 527.1293 614.30658 559.9538 621.91797 577.79297 C 629.52933 595.63214 645.9416 604.55273 671.1543 604.55273 C 696.12914 604.55273 715.15818 596.22607 728.24023 579.57617 C 738.94373 565.78054 747.50564 537.00175 753.92773 493.23633 C 759.16057 458.74728 767.12854 422.82965 777.83203 385.48633 C 792.34121 335.06094 808.03997 298.66897 824.92773 276.31055 C 834.20408 263.94206 844.07535 257.75781 854.54102 257.75781 C 843.83749 284.15978 838.48633 312.3466 838.48633 342.31641 C 838.48633 378.94616 846.57386 404.63382 862.74805 419.38086 C 871.07299 427.23011 882.01254 431.1543 895.57031 431.1543 C 915.31232 431.1543 935.76834 424.6133 956.9375 411.53125 C 965.76749 406.07451 973.9048 400.13512 981.36914 393.72656 C 979.35573 408.06965 978.3457 423.27938 978.3457 439.36133 C 978.3457 480.98607 986.07455 517.25847 1001.5352 548.17969 C 1021.2772 587.66371 1051.6045 607.40625 1092.5156 607.40625 C 1130.3347 607.40625 1161.0187 589.68657 1184.5664 554.24609 C 1198.362 533.55265 1209.184 508.93329 1217.0332 480.39062 C 1227.0231 567.6836 1255.5647 611.33008 1302.6602 611.33008 C 1333.8192 611.33008 1364.027 593.25364 1393.2832 557.09961 C 1414.9935 530.44538 1435.2426 496.87026 1454.0391 456.42383 C 1457.7409 494.59967 1468.2716 525.80194 1485.6914 549.96484 C 1512.3312 587.30816 1554.194 605.97852 1611.2793 605.97852 C 1673.1217 605.97852 1721.9998 579.69498 1757.916 527.12891 C 1774.0902 503.34336 1786.2215 477.06177 1794.3086 448.28125 C 1820.4727 446.8541 1844.1395 437.57677 1865.3086 420.45117 C 1886.7156 403.32558 1903.365 376.6853 1915.2578 340.53125 C 1920.2528 325.78421 1922.75 313.77246 1922.75 304.49609 C 1922.75 298.07399 1920.49 294.86328 1915.9707 294.86328 C 1910.0243 294.86328 1904.436 299.2638 1899.2031 308.06445 C 1895.8731 313.77299 1891.7098 322.8112 1886.7148 335.17969 C 1869.1135 379.42083 1841.403 402.96997 1803.584 405.82422 C 1805.9625 384.89294 1807.1523 367.41043 1807.1523 353.37695 C 1807.1523 310.08724 1798.9472 272.14871 1782.5352 239.5625 C 1760.8903 196.98635 1729.8495 175.69922 1689.4141 175.69922 C 1676.8077 175.69922 1663.8453 178.79036 1650.5254 184.97461 C 1645.7683 178.79036 1636.2537 175.69922 1621.9824 175.69922 C 1573.6977 175.69922 1534.4518 197.10592 1504.2441 239.91992 C 1479.5548 274.48504 1463.7047 315.75737 1456.6895 363.73047 C 1446.0784 384.69507 1432.369 408.55006 1415.4043 435.4375 C 1390.4295 475.15938 1367.0018 504.4145 1345.1191 523.20508 C 1359.6283 474.9204 1370.5679 407.96394 1377.9414 322.33594 C 1382.4607 268.58058 1384.7207 222.19972 1384.7207 183.19141 C 1384.7207 149.89163 1383.8896 127.05599 1382.2246 114.6875 C 1380.5596 102.08116 1378.18 90.426157 1375.0879 79.722656 C 1368.1901 56.412816 1349.5178 44.640202 1319.0723 44.402344 z M -348.5332 54.392578 C -364.46953 54.392578 -379.21567 59.387022 -392.77344 69.376953 C -408.47191 81.26973 -416.32031 97.681991 -416.32031 118.61328 C -416.32031 139.06886 -406.5686 153.22108 -387.06445 161.07031 C -378.02593 164.876 -368.98773 166.7793 -359.94922 166.7793 C -335.68795 166.7793 -317.13522 158.57219 -304.29102 142.16016 C -296.20393 131.93237 -292.16016 119.56388 -292.16016 105.05469 C -292.16016 82.696265 -302.03143 67.593375 -321.77344 59.744141 C -331.0498 56.176309 -339.9704 54.392578 -348.5332 54.392578 z M 1690.127 233.49805 C 1695.3598 233.49805 1701.1873 237.53987 1707.6094 245.62695 C 1724.2593 267.27181 1732.584 302.59355 1732.584 351.5918 C 1732.584 362.2953 1732.1096 373.35637 1731.1582 384.77344 C 1714.7462 373.35637 1701.0683 357.77717 1690.127 338.03516 C 1679.4235 318.05529 1674.0723 296.52902 1674.0723 273.45703 C 1674.0723 246.81721 1679.4235 233.49805 1690.127 233.49805 z M 1183.1387 256.6875 C 1197.1722 256.6875 1209.3035 265.01222 1219.5312 281.66211 C 1210.7306 366.3387 1198.2425 426.9933 1182.0684 463.62305 C 1162.5642 507.38846 1144.131 529.27148 1126.7676 529.27148 C 1104.647 529.27148 1093.5859 502.39206 1093.5859 448.63672 C 1093.5859 436.03036 1094.8933 420.09442 1097.5098 400.82812 C 1102.2669 364.91194 1110.9503 333.51635 1123.5566 306.63867 C 1139.2551 273.33889 1159.1153 256.6875 1183.1387 256.6875 z M 347.55273 263.82422 C 362.29978 263.82422 374.90545 270.60239 385.37109 284.16016 C 379.18685 340.05621 366.22443 393.6935 346.48242 445.07031 C 326.74041 496.44709 308.18767 522.13477 290.82422 522.13477 C 268.94151 522.13477 258 497.63494 258 448.63672 C 258 434.12752 259.18785 418.19158 261.56641 400.82812 C 266.79923 364.19837 276.07658 333.03996 289.39648 307.35156 C 304.14353 278.33318 323.52932 263.82422 347.55273 263.82422 z M 1617.7012 305.21094 C 1623.4097 332.80218 1635.5391 358.37222 1654.0918 381.91992 C 1672.6445 405.22975 1695.5978 423.069 1722.9512 435.4375 C 1718.4319 453.27664 1712.2477 469.44978 1704.3984 483.95898 C 1696.787 498.2303 1687.3921 509.76575 1676.2129 518.56641 C 1665.2715 527.12923 1652.5463 531.41211 1638.0371 531.41211 C 1624.7172 531.41211 1614.3716 525.82179 1606.998 514.64258 C 1599.8624 503.46337 1595.3423 490.97532 1593.4395 477.17969 C 1591.7745 463.38406 1590.9414 451.37231 1590.9414 441.14453 C 1590.9414 395.71412 1599.862 350.40349 1617.7012 305.21094 z "
       transform="scale(0.26458333)" />
  </g>
</svg>
